<svg width="16" height="24" viewBox="0 0 16 24" fill="none" xmlns="http://www.w3.org/2000/svg">
<path d="M15.75 12C15.75 16.2812 12.25 19.75 8 19.75C3.71875 19.75 0.25 16.2812 0.25 12C0.25 7.75 3.71875 4.25 8 4.25C12.25 4.25 15.75 7.75 15.75 12ZM8 13.5625C7.1875 13.5625 6.5625 14.2188 6.5625 15C6.5625 15.8125 7.1875 16.4375 8 16.4375C8.78125 16.4375 9.4375 15.8125 9.4375 15C9.4375 14.2188 8.78125 13.5625 8 13.5625ZM6.625 8.40625L6.84375 12.6562C6.875 12.875 7.03125 13 7.21875 13H8.75C8.9375 13 9.09375 12.875 9.125 12.6562L9.34375 8.40625C9.375 8.1875 9.1875 8 8.96875 8H7C6.78125 8 6.59375 8.1875 6.625 8.40625Z" fill="#B3000F"/>
</svg>
