<?xml version="1.0" encoding="utf-8"?>
<!-- Generator: Adobe Illustrator 24.1.2, SVG Export Plug-In . SVG Version: 6.00 Build 0)  -->
<svg version="1.1" id="Layer_1" xmlns="http://www.w3.org/2000/svg" xmlns:xlink="http://www.w3.org/1999/xlink" x="0px" y="0px"
	 viewBox="0 0 720.7 132.9" style="enable-background:new 0 0 720.7 132.9;" xml:space="preserve">
<style type="text/css">
	.st0{enable-background:new    ;}
</style>
<path d="M65.9,126.5c-33.1,0-59.6-26.5-59.6-59.6S32.8,7.2,65.9,7.2s59.6,26.5,59.6,59.6c0,32.7-26.5,59.6-59.3,59.6H65.9z
	 M65.9,1.4c-36,0-65.5,29.5-65.5,65.5s29.5,65.5,65.5,65.5s65.5-29.5,65.5-65.5S101.9,1.4,65.9,1.4"/>
<path d="M24.4,58.5h31.3v50.9H76V58.5h31.3V37.7H24.4L24.4,58.5z"/>
<g>
	<g class="st0">
		<path d="M178.6,18.8h10.5v35h-6.8V30.1c0-0.7,0-1.6,0-2.9c0-1.2,0-2.2,0-2.8l-6.6,29.4h-7.1L162,24.4c0,0.7,0,1.6,0,2.8
			c0,1.2,0,2.2,0,2.9v23.7h-6.8v-35h10.7l6.4,27.5L178.6,18.8z"/>
		<path d="M205.6,38c1.3-0.2,2.2-0.4,2.7-0.6c1-0.4,1.5-1.1,1.5-1.9c0-1.1-0.4-1.8-1.1-2.2c-0.7-0.4-1.8-0.6-3.3-0.6
			c-1.6,0-2.8,0.4-3.4,1.2c-0.5,0.6-0.8,1.4-1,2.4h-6.5c0.1-2.3,0.8-4.1,1.9-5.6c1.8-2.3,4.9-3.4,9.3-3.4c2.8,0,5.4,0.6,7.6,1.7
			c2.2,1.1,3.3,3.2,3.3,6.4v11.9c0,0.8,0,1.8,0,3c0,0.9,0.2,1.5,0.4,1.8c0.2,0.3,0.6,0.6,1,0.8v1h-7.4c-0.2-0.5-0.3-1-0.4-1.5
			s-0.1-1-0.2-1.6c-0.9,1-2,1.9-3.3,2.6c-1.5,0.8-3.1,1.3-5,1.3c-2.4,0-4.3-0.7-5.8-2c-1.5-1.3-2.3-3.2-2.3-5.7
			c0-3.2,1.2-5.5,3.7-6.9c1.4-0.8,3.4-1.3,6-1.7L205.6,38z M209.8,41.2c-0.4,0.3-0.9,0.5-1.3,0.7c-0.4,0.2-1,0.3-1.8,0.5l-1.5,0.3
			c-1.4,0.3-2.5,0.6-3.1,0.9c-1.1,0.6-1.6,1.6-1.6,2.9c0,1.2,0.3,2,1,2.5c0.7,0.5,1.4,0.8,2.4,0.8c1.5,0,2.8-0.4,4.1-1.3
			s1.9-2.4,1.9-4.7V41.2z"/>
		<path d="M227.7,45.5c0.1,1.2,0.5,2.1,0.9,2.6c0.8,0.9,2.4,1.4,4.7,1.4c1.3,0,2.4-0.2,3.2-0.6c0.8-0.4,1.2-1,1.2-1.8
			c0-0.8-0.3-1.3-1-1.7c-0.6-0.4-3-1.1-7.1-2c-2.9-0.7-5-1.6-6.2-2.7c-1.2-1.1-1.8-2.6-1.8-4.7c0-2.4,0.9-4.4,2.8-6.2
			c1.9-1.7,4.5-2.6,7.9-2.6c3.2,0,5.9,0.6,7.9,1.9c2,1.3,3.2,3.5,3.5,6.7H237c-0.1-0.9-0.3-1.6-0.7-2.1c-0.7-0.9-2-1.4-3.8-1.4
			c-1.5,0-2.5,0.2-3.2,0.7c-0.6,0.5-0.9,1-0.9,1.6c0,0.8,0.3,1.3,1,1.7c0.7,0.4,3,1,7.1,1.9c2.7,0.6,4.7,1.6,6.1,2.9
			c1.3,1.3,2,2.9,2,4.9c0,2.6-1,4.7-2.9,6.3c-1.9,1.6-4.9,2.4-8.9,2.4c-4.1,0-7.1-0.9-9-2.6c-1.9-1.7-2.9-3.9-2.9-6.6H227.7z"/>
		<path d="M254.8,45.5c0.1,1.2,0.5,2.1,0.9,2.6c0.8,0.9,2.4,1.4,4.7,1.4c1.3,0,2.4-0.2,3.2-0.6c0.8-0.4,1.2-1,1.2-1.8
			c0-0.8-0.3-1.3-1-1.7c-0.6-0.4-3-1.1-7.1-2c-2.9-0.7-5-1.6-6.2-2.7c-1.2-1.1-1.8-2.6-1.8-4.7c0-2.4,0.9-4.4,2.8-6.2
			c1.9-1.7,4.5-2.6,7.9-2.6c3.2,0,5.9,0.6,7.9,1.9c2,1.3,3.2,3.5,3.5,6.7h-6.8c-0.1-0.9-0.3-1.6-0.7-2.1c-0.7-0.9-2-1.4-3.8-1.4
			c-1.5,0-2.5,0.2-3.2,0.7c-0.6,0.5-0.9,1-0.9,1.6c0,0.8,0.3,1.3,1,1.7c0.7,0.4,3,1,7.1,1.9c2.7,0.6,4.7,1.6,6.1,2.9
			c1.3,1.3,2,2.9,2,4.9c0,2.6-1,4.7-2.9,6.3c-1.9,1.6-4.9,2.4-8.9,2.4c-4.1,0-7.1-0.9-9-2.6c-1.9-1.7-2.9-3.9-2.9-6.6H254.8z"/>
		<path d="M286.8,38c1.3-0.2,2.2-0.4,2.7-0.6c1-0.4,1.5-1.1,1.5-1.9c0-1.1-0.4-1.8-1.1-2.2c-0.7-0.4-1.8-0.6-3.3-0.6
			c-1.6,0-2.8,0.4-3.4,1.2c-0.5,0.6-0.8,1.4-1,2.4h-6.5c0.1-2.3,0.8-4.1,1.9-5.6c1.8-2.3,4.9-3.4,9.3-3.4c2.8,0,5.4,0.6,7.6,1.7
			c2.2,1.1,3.3,3.2,3.3,6.4v11.9c0,0.8,0,1.8,0,3c0,0.9,0.2,1.5,0.4,1.8c0.2,0.3,0.6,0.6,1,0.8v1h-7.4c-0.2-0.5-0.3-1-0.4-1.5
			s-0.1-1-0.2-1.6c-0.9,1-2,1.9-3.3,2.6c-1.5,0.8-3.1,1.3-5,1.3c-2.4,0-4.3-0.7-5.8-2c-1.5-1.3-2.3-3.2-2.3-5.7
			c0-3.2,1.2-5.5,3.7-6.9c1.4-0.8,3.4-1.3,6-1.7L286.8,38z M291,41.2c-0.4,0.3-0.9,0.5-1.3,0.7c-0.4,0.2-1,0.3-1.8,0.5l-1.5,0.3
			c-1.4,0.3-2.5,0.6-3.1,0.9c-1.1,0.6-1.6,1.6-1.6,2.9c0,1.2,0.3,2,1,2.5c0.7,0.5,1.4,0.8,2.4,0.8c1.5,0,2.8-0.4,4.1-1.3
			s1.9-2.4,1.9-4.7V41.2z"/>
		<path d="M319.1,37.2c-0.1-1-0.5-1.8-1-2.6c-0.8-1-1.9-1.6-3.5-1.6c-2.3,0-3.9,1.1-4.7,3.4c-0.4,1.2-0.7,2.8-0.7,4.8
			c0,1.9,0.2,3.4,0.7,4.6c0.8,2.2,2.3,3.2,4.6,3.2c1.6,0,2.7-0.4,3.4-1.3s1.1-2,1.2-3.3h6.9c-0.2,2.1-0.9,4-2.2,5.8
			c-2.1,3-5.3,4.4-9.4,4.4c-4.2,0-7.2-1.2-9.2-3.7c-2-2.5-2.9-5.7-2.9-9.6c0-4.4,1.1-7.9,3.3-10.4c2.2-2.5,5.2-3.7,9-3.7
			c3.3,0,5.9,0.7,8,2.2s3.3,4,3.7,7.7H319.1z"/>
		<path d="M349.3,28c1.3,0.6,2.4,1.4,3.2,2.5c0.7,1,1.1,2,1.3,3c0.2,1,0.2,2.7,0.2,5v15.2h-6.9V38c0-1.4-0.2-2.5-0.7-3.4
			c-0.6-1.2-1.8-1.8-3.5-1.8c-1.8,0-3.1,0.6-4,1.8c-0.9,1.2-1.4,2.9-1.4,5.1v14h-6.8V18.9h6.8v12.4c1-1.5,2.1-2.6,3.4-3.1
			c1.3-0.6,2.6-0.9,4.1-0.9C346.6,27.2,348,27.5,349.3,28z"/>
		<path d="M367.2,27.9v15.6c0,1.5,0.2,2.6,0.5,3.3c0.6,1.3,1.8,2,3.6,2c2.3,0,3.9-0.9,4.7-2.8c0.4-1,0.7-2.4,0.7-4V27.9h6.9v25.9
			H377v-3.7c-0.1,0.1-0.2,0.3-0.5,0.7c-0.3,0.4-0.6,0.7-0.9,1c-1.1,1-2.1,1.6-3.1,1.9c-1,0.3-2.1,0.5-3.5,0.5
			c-3.8,0-6.4-1.4-7.7-4.1c-0.7-1.5-1.1-3.8-1.1-6.7V27.9H367.2z"/>
		<path d="M395.4,45.5c0.1,1.2,0.5,2.1,0.9,2.6c0.8,0.9,2.4,1.4,4.7,1.4c1.3,0,2.4-0.2,3.2-0.6c0.8-0.4,1.2-1,1.2-1.8
			c0-0.8-0.3-1.3-1-1.7c-0.6-0.4-3-1.1-7.1-2c-2.9-0.7-5-1.6-6.2-2.7c-1.2-1.1-1.8-2.6-1.8-4.7c0-2.4,0.9-4.4,2.8-6.2
			c1.9-1.7,4.5-2.6,7.9-2.6c3.2,0,5.9,0.6,7.9,1.9c2,1.3,3.2,3.5,3.5,6.7h-6.8c-0.1-0.9-0.3-1.6-0.7-2.1c-0.7-0.9-2-1.4-3.8-1.4
			c-1.5,0-2.5,0.2-3.2,0.7c-0.6,0.5-0.9,1-0.9,1.6c0,0.8,0.3,1.3,1,1.7c0.7,0.4,3,1,7.1,1.9c2.7,0.6,4.7,1.6,6.1,2.9
			c1.3,1.3,2,2.9,2,4.9c0,2.6-1,4.7-2.9,6.3c-1.9,1.6-4.9,2.4-8.9,2.4c-4.1,0-7.1-0.9-9-2.6c-1.9-1.7-2.9-3.9-2.9-6.6H395.4z"/>
		<path d="M434.1,28.4c1.8,0.8,3.3,2.1,4.5,3.8c1.1,1.5,1.7,3.3,2.1,5.4c0.2,1.2,0.3,2.9,0.2,5.1H422c0.1,2.6,1,4.4,2.7,5.5
			c1,0.6,2.3,1,3.7,1c1.5,0,2.8-0.4,3.8-1.2c0.5-0.4,1-1,1.4-1.8h6.9c-0.2,1.5-1,3.1-2.5,4.7c-2.3,2.5-5.6,3.8-9.7,3.8
			c-3.4,0-6.5-1.1-9.1-3.2s-4-5.6-4-10.4c0-4.5,1.2-7.9,3.6-10.3c2.4-2.4,5.5-3.6,9.3-3.6C430.3,27.2,432.3,27.6,434.1,28.4z
			 M424,34.3c-1,1-1.6,2.3-1.8,4h11.7c-0.1-1.8-0.7-3.2-1.8-4.1c-1.1-0.9-2.4-1.4-4-1.4C426.3,32.8,424.9,33.3,424,34.3z"/>
		<path d="M441.6,32.9v-4.8h3.6v-7.2h6.7v7.2h4.2v4.8h-4.2v13.7c0,1.1,0.1,1.7,0.4,2s1.1,0.4,2.5,0.4c0.2,0,0.4,0,0.7,0s0.5,0,0.7,0
			V54l-3.2,0.1c-3.2,0.1-5.4-0.4-6.6-1.7c-0.8-0.8-1.1-2-1.1-3.6V32.9H441.6z"/>
		<path d="M457.8,32.9v-4.8h3.6v-7.2h6.7v7.2h4.2v4.8h-4.2v13.7c0,1.1,0.1,1.7,0.4,2s1.1,0.4,2.5,0.4c0.2,0,0.4,0,0.7,0s0.5,0,0.7,0
			V54l-3.2,0.1c-3.2,0.1-5.4-0.4-6.6-1.7c-0.8-0.8-1.1-2-1.1-3.6V32.9H457.8z"/>
		<path d="M482,45.5c0.1,1.2,0.5,2.1,0.9,2.6c0.8,0.9,2.4,1.4,4.7,1.4c1.3,0,2.4-0.2,3.2-0.6c0.8-0.4,1.2-1,1.2-1.8
			c0-0.8-0.3-1.3-1-1.7c-0.6-0.4-3-1.1-7.1-2c-2.9-0.7-5-1.6-6.2-2.7c-1.2-1.1-1.8-2.6-1.8-4.7c0-2.4,0.9-4.4,2.8-6.2
			c1.9-1.7,4.5-2.6,7.9-2.6c3.2,0,5.9,0.6,7.9,1.9c2,1.3,3.2,3.5,3.5,6.7h-6.8c-0.1-0.9-0.3-1.6-0.7-2.1c-0.7-0.9-2-1.4-3.8-1.4
			c-1.5,0-2.5,0.2-3.2,0.7c-0.6,0.5-0.9,1-0.9,1.6c0,0.8,0.3,1.3,1,1.7c0.7,0.4,3,1,7.1,1.9c2.7,0.6,4.7,1.6,6.1,2.9
			c1.3,1.3,2,2.9,2,4.9c0,2.6-1,4.7-2.9,6.3c-1.9,1.6-4.9,2.4-8.9,2.4c-4.1,0-7.1-0.9-9-2.6c-1.9-1.7-2.9-3.9-2.9-6.6H482z"/>
		<path d="M544,22.5c1.1,1.5,1.6,3.3,1.6,5.3c0,2.1-0.5,3.9-1.6,5.2c-0.6,0.7-1.5,1.4-2.7,2c1.8,0.6,3.1,1.7,4,3.1
			c0.9,1.4,1.4,3.1,1.4,5.1c0,2.1-0.5,3.9-1.6,5.6c-0.7,1.1-1.5,2-2.5,2.8c-1.1,0.9-2.4,1.4-4,1.8c-1.5,0.3-3.2,0.5-4.9,0.5H518v-35
			h16.9C539.2,18.8,542.2,20.1,544,22.5z M524.9,24.8v7.7h8.5c1.5,0,2.8-0.3,3.7-0.9c0.9-0.6,1.4-1.6,1.4-3.1c0-1.6-0.6-2.7-1.9-3.2
			c-1.1-0.4-2.5-0.5-4.1-0.5H524.9z M524.9,38.4v9.3h8.5c1.5,0,2.7-0.2,3.5-0.6c1.5-0.8,2.3-2.2,2.3-4.4c0-1.8-0.7-3.1-2.2-3.8
			c-0.8-0.4-2-0.6-3.5-0.6H524.9z"/>
		<path d="M562.7,38c1.3-0.2,2.2-0.4,2.7-0.6c1-0.4,1.5-1.1,1.5-1.9c0-1.1-0.4-1.8-1.1-2.2c-0.7-0.4-1.8-0.6-3.3-0.6
			c-1.6,0-2.8,0.4-3.4,1.2c-0.5,0.6-0.8,1.4-1,2.4h-6.5c0.1-2.3,0.8-4.1,1.9-5.6c1.8-2.3,4.9-3.4,9.3-3.4c2.8,0,5.4,0.6,7.6,1.7
			c2.2,1.1,3.3,3.2,3.3,6.4v11.9c0,0.8,0,1.8,0,3c0,0.9,0.2,1.5,0.4,1.8c0.2,0.3,0.6,0.6,1,0.8v1h-7.4c-0.2-0.5-0.3-1-0.4-1.5
			s-0.1-1-0.2-1.6c-0.9,1-2,1.9-3.3,2.6c-1.5,0.8-3.1,1.3-5,1.3c-2.4,0-4.3-0.7-5.8-2c-1.5-1.3-2.3-3.2-2.3-5.7
			c0-3.2,1.2-5.5,3.7-6.9c1.4-0.8,3.4-1.3,6-1.7L562.7,38z M566.8,41.2c-0.4,0.3-0.9,0.5-1.3,0.7c-0.4,0.2-1,0.3-1.8,0.5l-1.5,0.3
			c-1.4,0.3-2.5,0.6-3.1,0.9c-1.1,0.6-1.6,1.6-1.6,2.9c0,1.2,0.3,2,1,2.5c0.7,0.5,1.4,0.8,2.4,0.8c1.5,0,2.8-0.4,4.1-1.3
			s1.9-2.4,1.9-4.7V41.2z"/>
		<path d="M580.5,58.7l0.9,0c0.7,0,1.3,0,1.9-0.1c0.6-0.1,1.1-0.3,1.5-0.5c0.4-0.3,0.8-0.8,1.1-1.7s0.5-1.4,0.4-1.6l-9.5-27h7.5
			L590,47l5.3-19.1h7.2l-8.9,25.5c-1.7,4.9-3.1,8-4.1,9.1c-1,1.2-3,1.8-6,1.8c-0.6,0-1.1,0-1.5,0c-0.4,0-0.9,0-1.6-0.1V58.7z"/>
	</g>
	<g class="st0">
		<path d="M180.8,77.2v6.2h-10.5v28.8H163V83.4h-10.5v-6.2H180.8z"/>
	</g>
	<g class="st0">
		<path d="M196.3,85.7c0.1,0,0.3,0,0.6,0v6.9c-0.4,0-0.8-0.1-1.1-0.1c-0.3,0-0.6,0-0.8,0c-2.7,0-4.6,0.9-5.5,2.7
			c-0.5,1-0.8,2.5-0.8,4.6v12.4h-6.8V86.3h6.5v4.5c1-1.7,2-2.9,2.7-3.5c1.3-1.1,2.9-1.6,4.9-1.6C196.1,85.7,196.2,85.7,196.3,85.7z"
			/>
		<path d="M211.1,96.4c1.3-0.2,2.2-0.4,2.7-0.6c1-0.4,1.5-1.1,1.5-1.9c0-1.1-0.4-1.8-1.1-2.2c-0.7-0.4-1.8-0.6-3.3-0.6
			c-1.6,0-2.8,0.4-3.4,1.2c-0.5,0.6-0.8,1.4-1,2.4h-6.5c0.1-2.3,0.8-4.1,1.9-5.6c1.8-2.3,4.9-3.4,9.3-3.4c2.8,0,5.4,0.6,7.6,1.7
			c2.2,1.1,3.3,3.2,3.3,6.4v11.9c0,0.8,0,1.8,0,3c0,0.9,0.2,1.5,0.4,1.8c0.2,0.3,0.6,0.6,1,0.8v1h-7.4c-0.2-0.5-0.3-1-0.4-1.5
			s-0.1-1-0.2-1.6c-0.9,1-2,1.9-3.3,2.6c-1.5,0.8-3.1,1.3-5,1.3c-2.4,0-4.3-0.7-5.8-2c-1.5-1.3-2.3-3.2-2.3-5.7
			c0-3.2,1.2-5.5,3.7-6.9c1.4-0.8,3.4-1.3,6-1.7L211.1,96.4z M215.2,99.6c-0.4,0.3-0.9,0.5-1.3,0.7c-0.4,0.2-1,0.3-1.8,0.5l-1.5,0.3
			c-1.4,0.3-2.5,0.6-3.1,0.9c-1.1,0.6-1.6,1.6-1.6,2.9c0,1.2,0.3,2,1,2.5c0.7,0.5,1.4,0.8,2.4,0.8c1.5,0,2.8-0.4,4.1-1.3
			s1.9-2.4,1.9-4.7V99.6z"/>
		<path d="M248.8,87.8c1.7,1.4,2.5,3.7,2.5,7v17.4h-6.9V96.4c0-1.4-0.2-2.4-0.5-3.1c-0.7-1.3-1.9-2-3.8-2c-2.3,0-3.8,1-4.7,2.9
			c-0.4,1-0.7,2.3-0.7,3.9v14H228V86.3h6.6v3.8c0.9-1.3,1.7-2.3,2.5-2.9c1.4-1,3.1-1.6,5.3-1.6C244.9,85.7,247.1,86.4,248.8,87.8z"
			/>
		<path d="M262.9,103.9c0.1,1.2,0.5,2.1,0.9,2.6c0.8,0.9,2.4,1.4,4.7,1.4c1.3,0,2.4-0.2,3.2-0.6c0.8-0.4,1.2-1,1.2-1.8
			c0-0.8-0.3-1.3-1-1.7c-0.6-0.4-3-1.1-7.1-2c-2.9-0.7-5-1.6-6.2-2.7c-1.2-1.1-1.8-2.6-1.8-4.7c0-2.4,0.9-4.4,2.8-6.2
			c1.9-1.7,4.5-2.6,7.9-2.6c3.2,0,5.9,0.6,7.9,1.9c2,1.3,3.2,3.5,3.5,6.7h-6.8c-0.1-0.9-0.3-1.6-0.7-2.1c-0.7-0.9-2-1.4-3.8-1.4
			c-1.5,0-2.5,0.2-3.2,0.7c-0.6,0.5-0.9,1-0.9,1.6c0,0.8,0.3,1.3,1,1.7c0.7,0.4,3,1,7.1,1.9c2.7,0.6,4.7,1.6,6.1,2.9
			c1.3,1.3,2,2.9,2,4.9c0,2.6-1,4.7-2.9,6.3c-1.9,1.6-4.9,2.4-8.9,2.4c-4.1,0-7.1-0.9-9-2.6c-1.9-1.7-2.9-3.9-2.9-6.6H262.9z"/>
		<path d="M306.5,89.1c2.1,2.2,3.2,5.5,3.2,9.8c0,4.6-1,8-3.1,10.4s-4.7,3.6-8,3.6c-2.1,0-3.8-0.5-5.2-1.5c-0.7-0.6-1.5-1.4-2.2-2.5
			v13.5h-6.7V86.3h6.5v3.8c0.7-1.1,1.5-2,2.3-2.7c1.5-1.2,3.3-1.7,5.4-1.7C301.8,85.7,304.4,86.8,306.5,89.1z M301.3,93.9
			c-0.9-1.5-2.4-2.3-4.5-2.3c-2.5,0-4.2,1.2-5.1,3.5c-0.5,1.2-0.7,2.8-0.7,4.7c0,3,0.8,5.1,2.4,6.3c1,0.7,2.1,1.1,3.4,1.1
			c1.9,0,3.4-0.7,4.4-2.2c1-1.5,1.5-3.4,1.5-5.8C302.7,97.2,302.2,95.5,301.3,93.9z"/>
		<path d="M336,109c-2.2,2.7-5.5,4-10,4c-4.5,0-7.8-1.3-10-4c-2.2-2.7-3.3-5.9-3.3-9.7c0-3.7,1.1-7,3.3-9.7s5.5-4.1,10-4.1
			c4.5,0,7.8,1.4,10,4.1c2.2,2.7,3.3,6,3.3,9.7C339.3,103.1,338.2,106.3,336,109z M330.6,105.3c1.1-1.4,1.6-3.4,1.6-6
			c0-2.6-0.5-4.6-1.6-6c-1.1-1.4-2.6-2.1-4.6-2.1s-3.5,0.7-4.6,2.1s-1.6,3.4-1.6,6c0,2.6,0.5,4.6,1.6,6c1.1,1.4,2.6,2.1,4.6,2.1
			S329.5,106.7,330.6,105.3z"/>
		<path d="M358.5,85.7c0.1,0,0.3,0,0.6,0v6.9c-0.4,0-0.8-0.1-1.1-0.1c-0.3,0-0.6,0-0.8,0c-2.7,0-4.6,0.9-5.5,2.7
			c-0.5,1-0.8,2.5-0.8,4.6v12.4h-6.8V86.3h6.5v4.5c1-1.7,2-2.9,2.7-3.5c1.3-1.1,2.9-1.6,4.9-1.6C358.3,85.7,358.5,85.7,358.5,85.7z"
			/>
		<path d="M360.4,91.3v-4.8h3.6v-7.2h6.7v7.2h4.2v4.8h-4.2V105c0,1.1,0.1,1.7,0.4,2s1.1,0.4,2.5,0.4c0.2,0,0.4,0,0.7,0s0.5,0,0.7,0
			v5.1l-3.2,0.1c-3.2,0.1-5.4-0.4-6.6-1.7c-0.8-0.8-1.1-2-1.1-3.6V91.3H360.4z"/>
		<path d="M389.6,96.4c1.3-0.2,2.2-0.4,2.7-0.6c1-0.4,1.5-1.1,1.5-1.9c0-1.1-0.4-1.8-1.1-2.2c-0.7-0.4-1.8-0.6-3.3-0.6
			c-1.6,0-2.8,0.4-3.4,1.2c-0.5,0.6-0.8,1.4-1,2.4h-6.5c0.1-2.3,0.8-4.1,1.9-5.6c1.8-2.3,4.9-3.4,9.3-3.4c2.8,0,5.4,0.6,7.6,1.7
			c2.2,1.1,3.3,3.2,3.3,6.4v11.9c0,0.8,0,1.8,0,3c0,0.9,0.2,1.5,0.4,1.8c0.2,0.3,0.6,0.6,1,0.8v1h-7.4c-0.2-0.5-0.3-1-0.4-1.5
			s-0.1-1-0.2-1.6c-0.9,1-2,1.9-3.3,2.6c-1.5,0.8-3.1,1.3-5,1.3c-2.4,0-4.3-0.7-5.8-2c-1.5-1.3-2.3-3.2-2.3-5.7
			c0-3.2,1.2-5.5,3.7-6.9c1.4-0.8,3.4-1.3,6-1.7L389.6,96.4z M393.7,99.6c-0.4,0.3-0.9,0.5-1.3,0.7c-0.4,0.2-1,0.3-1.8,0.5L389,101
			c-1.4,0.3-2.5,0.6-3.1,0.9c-1.1,0.6-1.6,1.6-1.6,2.9c0,1.2,0.3,2,1,2.5c0.7,0.5,1.4,0.8,2.4,0.8c1.5,0,2.8-0.4,4.1-1.3
			s1.9-2.4,1.9-4.7V99.6z"/>
		<path d="M403.7,91.3v-4.8h3.6v-7.2h6.7v7.2h4.2v4.8H414V105c0,1.1,0.1,1.7,0.4,2s1.1,0.4,2.5,0.4c0.2,0,0.4,0,0.7,0s0.5,0,0.7,0
			v5.1l-3.2,0.1c-3.2,0.1-5.4-0.4-6.6-1.7c-0.8-0.8-1.1-2-1.1-3.6V91.3H403.7z"/>
		<path d="M429.5,83.2h-6.9v-6.2h6.9V83.2z M422.7,86.3h6.9v25.9h-6.9V86.3z"/>
		<path d="M457.7,109c-2.2,2.7-5.5,4-10,4c-4.5,0-7.8-1.3-10-4c-2.2-2.7-3.3-5.9-3.3-9.7c0-3.7,1.1-7,3.3-9.7s5.5-4.1,10-4.1
			c4.5,0,7.8,1.4,10,4.1c2.2,2.7,3.3,6,3.3,9.7C461,103.1,459.9,106.3,457.7,109z M452.3,105.3c1.1-1.4,1.6-3.4,1.6-6
			c0-2.6-0.5-4.6-1.6-6c-1.1-1.4-2.6-2.1-4.6-2.1s-3.5,0.7-4.6,2.1s-1.6,3.4-1.6,6c0,2.6,0.5,4.6,1.6,6c1.1,1.4,2.6,2.1,4.6,2.1
			S451.2,106.7,452.3,105.3z"/>
		<path d="M486.7,87.8c1.7,1.4,2.5,3.7,2.5,7v17.4h-6.9V96.4c0-1.4-0.2-2.4-0.5-3.1c-0.7-1.3-1.9-2-3.8-2c-2.3,0-3.8,1-4.7,2.9
			c-0.4,1-0.7,2.3-0.7,3.9v14h-6.8V86.3h6.6v3.8c0.9-1.3,1.7-2.3,2.5-2.9c1.4-1,3.1-1.6,5.3-1.6C482.8,85.7,485,86.4,486.7,87.8z"/>
	</g>
	<g class="st0">
		<path d="M517.9,77.2h8.3l12.4,35h-7.9l-2.3-7.2h-12.9l-2.4,7.2h-7.7L517.9,77.2z M517.4,98.9h9l-4.4-13.8L517.4,98.9z"/>
		<path d="M549.2,86.3v15.6c0,1.5,0.2,2.6,0.5,3.3c0.6,1.3,1.8,2,3.6,2c2.3,0,3.9-0.9,4.7-2.8c0.4-1,0.7-2.4,0.7-4V86.3h6.9v25.9
			H559v-3.7c-0.1,0.1-0.2,0.3-0.5,0.7c-0.3,0.4-0.6,0.7-0.9,1c-1.1,1-2.1,1.6-3.1,1.9c-1,0.3-2.1,0.5-3.5,0.5
			c-3.8,0-6.4-1.4-7.7-4.1c-0.7-1.5-1.1-3.8-1.1-6.7V86.3H549.2z"/>
		<path d="M569.5,91.3v-4.8h3.6v-7.2h6.7v7.2h4.2v4.8h-4.2V105c0,1.1,0.1,1.7,0.4,2s1.1,0.4,2.5,0.4c0.2,0,0.4,0,0.7,0s0.5,0,0.7,0
			v5.1l-3.2,0.1c-3.2,0.1-5.4-0.4-6.6-1.7c-0.8-0.8-1.1-2-1.1-3.6V91.3H569.5z"/>
		<path d="M607,86.4c1.3,0.6,2.4,1.4,3.2,2.5c0.7,1,1.1,2,1.3,3c0.2,1,0.2,2.7,0.2,5v15.2h-6.9V96.4c0-1.4-0.2-2.5-0.7-3.4
			c-0.6-1.2-1.8-1.8-3.5-1.8c-1.8,0-3.1,0.6-4,1.8c-0.9,1.2-1.4,2.9-1.4,5.1v14h-6.8V77.3h6.8v12.4c1-1.5,2.1-2.6,3.4-3.1
			c1.3-0.6,2.6-0.9,4.1-0.9C604.2,85.6,605.7,85.9,607,86.4z"/>
		<path d="M639.7,109c-2.2,2.7-5.5,4-10,4c-4.5,0-7.8-1.3-10-4c-2.2-2.7-3.3-5.9-3.3-9.7c0-3.7,1.1-7,3.3-9.7s5.5-4.1,10-4.1
			c4.5,0,7.8,1.4,10,4.1c2.2,2.7,3.3,6,3.3,9.7C643,103.1,641.9,106.3,639.7,109z M634.3,105.3c1.1-1.4,1.6-3.4,1.6-6
			c0-2.6-0.5-4.6-1.6-6c-1.1-1.4-2.6-2.1-4.6-2.1s-3.5,0.7-4.6,2.1s-1.6,3.4-1.6,6c0,2.6,0.5,4.6,1.6,6c1.1,1.4,2.6,2.1,4.6,2.1
			S633.2,106.7,634.3,105.3z"/>
		<path d="M662.2,85.7c0.1,0,0.3,0,0.6,0v6.9c-0.4,0-0.8-0.1-1.1-0.1c-0.3,0-0.6,0-0.8,0c-2.7,0-4.6,0.9-5.5,2.7
			c-0.5,1-0.8,2.5-0.8,4.6v12.4h-6.8V86.3h6.5v4.5c1-1.7,2-2.9,2.7-3.5c1.3-1.1,2.9-1.6,4.9-1.6C662,85.7,662.1,85.7,662.2,85.7z"/>
		<path d="M673.7,83.2h-6.9v-6.2h6.9V83.2z M666.9,86.3h6.9v25.9h-6.9V86.3z"/>
		<path d="M677.6,91.3v-4.8h3.6v-7.2h6.7v7.2h4.2v4.8h-4.2V105c0,1.1,0.1,1.7,0.4,2s1.1,0.4,2.5,0.4c0.2,0,0.4,0,0.7,0s0.5,0,0.7,0
			v5.1l-3.2,0.1c-3.2,0.1-5.4-0.4-6.6-1.7c-0.8-0.8-1.1-2-1.1-3.6V91.3H677.6z"/>
		<path d="M697.5,117.1l0.9,0c0.7,0,1.3,0,1.9-0.1c0.6-0.1,1.1-0.3,1.5-0.5c0.4-0.3,0.8-0.8,1.1-1.7s0.5-1.4,0.4-1.6l-9.5-27h7.5
			l5.7,19.1l5.3-19.1h7.2l-8.9,25.5c-1.7,4.9-3.1,8-4.1,9.1c-1,1.2-3,1.8-6,1.8c-0.6,0-1.1,0-1.5,0c-0.4,0-0.9,0-1.6-0.1V117.1z"/>
	</g>
</g>
</svg>
