<svg width="16" height="16" viewBox="0 0 16 16" fill="none" xmlns="http://www.w3.org/2000/svg">
<path d="M15.5 7.75C15.5 12.0312 12 15.5 7.75 15.5C3.46875 15.5 0 12.0312 0 7.75C0 3.5 3.46875 0 7.75 0C12 0 15.5 3.5 15.5 7.75ZM6.84375 11.875L12.5938 6.125C12.7812 5.9375 12.7812 5.59375 12.5938 5.40625L11.875 4.71875C11.6875 4.5 11.375 4.5 11.1875 4.71875L6.5 9.40625L4.28125 7.21875C4.09375 7 3.78125 7 3.59375 7.21875L2.875 7.90625C2.6875 8.09375 2.6875 8.4375 2.875 8.625L6.125 11.875C6.3125 12.0625 6.65625 12.0625 6.84375 11.875Z" fill="#1E8709"/>
</svg>
