<?xml version="1.0" encoding="utf-8"?>
<svg xmlns="http://www.w3.org/2000/svg" xmlns:xlink="http://www.w3.org/1999/xlink" xml:space="preserve" width="696" height="696" viewBox="0 0 696 696"><rect width="696" height="696" fill="#ffffff" x="0" y="0"/><g fill="#000000">
<g transform="translate(432,48) scale(4.12)"><rect width="6" height="6"/></g>
<g transform="translate(288,72) scale(4.12)"><rect width="6" height="6"/></g>
<g transform="translate(360,72) scale(4.12)"><rect width="6" height="6"/></g>
<g transform="translate(408,72) scale(4.12)"><rect width="6" height="6"/></g>
<g transform="translate(240,96) scale(4.12)"><rect width="6" height="6"/></g>
<g transform="translate(264,96) scale(4.12)"><rect width="6" height="6"/></g>
<g transform="translate(288,96) scale(4.12)"><rect width="6" height="6"/></g>
<g transform="translate(312,96) scale(4.12)"><rect width="6" height="6"/></g>
<g transform="translate(384,96) scale(4.12)"><rect width="6" height="6"/></g>
<g transform="translate(432,96) scale(4.12)"><rect width="6" height="6"/></g>
<g transform="translate(240,120) scale(4.12)"><rect width="6" height="6"/></g>
<g transform="translate(288,120) scale(4.12)"><rect width="6" height="6"/></g>
<g transform="translate(360,120) scale(4.12)"><rect width="6" height="6"/></g>
<g transform="translate(384,120) scale(4.12)"><rect width="6" height="6"/></g>
<g transform="translate(240,144) scale(4.12)"><rect width="6" height="6"/></g>
<g transform="translate(264,144) scale(4.12)"><rect width="6" height="6"/></g>
<g transform="translate(288,144) scale(4.12)"><rect width="6" height="6"/></g>
<g transform="translate(360,144) scale(4.12)"><rect width="6" height="6"/></g>
<g transform="translate(240,168) scale(4.12)"><rect width="6" height="6"/></g>
<g transform="translate(264,168) scale(4.12)"><rect width="6" height="6"/></g>
<g transform="translate(288,168) scale(4.12)"><rect width="6" height="6"/></g>
<g transform="translate(312,168) scale(4.12)"><rect width="6" height="6"/></g>
<g transform="translate(360,168) scale(4.12)"><rect width="6" height="6"/></g>
<g transform="translate(384,168) scale(4.12)"><rect width="6" height="6"/></g>
<g transform="translate(408,168) scale(4.12)"><rect width="6" height="6"/></g>
<g transform="translate(432,168) scale(4.12)"><rect width="6" height="6"/></g>
<g transform="translate(240,192) scale(4.12)"><rect width="6" height="6"/></g>
<g transform="translate(288,192) scale(4.12)"><rect width="6" height="6"/></g>
<g transform="translate(336,192) scale(4.12)"><rect width="6" height="6"/></g>
<g transform="translate(384,192) scale(4.12)"><rect width="6" height="6"/></g>
<g transform="translate(432,192) scale(4.12)"><rect width="6" height="6"/></g>
<g transform="translate(240,216) scale(4.12)"><rect width="6" height="6"/></g>
<g transform="translate(312,216) scale(4.12)"><rect width="6" height="6"/></g>
<g transform="translate(336,216) scale(4.12)"><rect width="6" height="6"/></g>
<g transform="translate(384,216) scale(4.12)"><rect width="6" height="6"/></g>
<g transform="translate(408,216) scale(4.12)"><rect width="6" height="6"/></g>
<g transform="translate(48,240) scale(4.12)"><rect width="6" height="6"/></g>
<g transform="translate(96,240) scale(4.12)"><rect width="6" height="6"/></g>
<g transform="translate(120,240) scale(4.12)"><rect width="6" height="6"/></g>
<g transform="translate(144,240) scale(4.12)"><rect width="6" height="6"/></g>
<g transform="translate(168,240) scale(4.12)"><rect width="6" height="6"/></g>
<g transform="translate(192,240) scale(4.12)"><rect width="6" height="6"/></g>
<g transform="translate(264,240) scale(4.12)"><rect width="6" height="6"/></g>
<g transform="translate(312,240) scale(4.12)"><rect width="6" height="6"/></g>
<g transform="translate(360,240) scale(4.12)"><rect width="6" height="6"/></g>
<g transform="translate(384,240) scale(4.12)"><rect width="6" height="6"/></g>
<g transform="translate(408,240) scale(4.12)"><rect width="6" height="6"/></g>
<g transform="translate(480,240) scale(4.12)"><rect width="6" height="6"/></g>
<g transform="translate(504,240) scale(4.12)"><rect width="6" height="6"/></g>
<g transform="translate(528,240) scale(4.12)"><rect width="6" height="6"/></g>
<g transform="translate(552,240) scale(4.12)"><rect width="6" height="6"/></g>
<g transform="translate(576,240) scale(4.12)"><rect width="6" height="6"/></g>
<g transform="translate(120,264) scale(4.12)"><rect width="6" height="6"/></g>
<g transform="translate(264,264) scale(4.12)"><rect width="6" height="6"/></g>
<g transform="translate(312,264) scale(4.12)"><rect width="6" height="6"/></g>
<g transform="translate(360,264) scale(4.12)"><rect width="6" height="6"/></g>
<g transform="translate(432,264) scale(4.12)"><rect width="6" height="6"/></g>
<g transform="translate(456,264) scale(4.12)"><rect width="6" height="6"/></g>
<g transform="translate(504,264) scale(4.12)"><rect width="6" height="6"/></g>
<g transform="translate(600,264) scale(4.12)"><rect width="6" height="6"/></g>
<g transform="translate(72,288) scale(4.12)"><rect width="6" height="6"/></g>
<g transform="translate(144,288) scale(4.12)"><rect width="6" height="6"/></g>
<g transform="translate(168,288) scale(4.12)"><rect width="6" height="6"/></g>
<g transform="translate(192,288) scale(4.12)"><rect width="6" height="6"/></g>
<g transform="translate(264,288) scale(4.12)"><rect width="6" height="6"/></g>
<g transform="translate(312,288) scale(4.12)"><rect width="6" height="6"/></g>
<g transform="translate(384,288) scale(4.12)"><rect width="6" height="6"/></g>
<g transform="translate(408,288) scale(4.12)"><rect width="6" height="6"/></g>
<g transform="translate(456,288) scale(4.12)"><rect width="6" height="6"/></g>
<g transform="translate(480,288) scale(4.12)"><rect width="6" height="6"/></g>
<g transform="translate(504,288) scale(4.12)"><rect width="6" height="6"/></g>
<g transform="translate(528,288) scale(4.12)"><rect width="6" height="6"/></g>
<g transform="translate(552,288) scale(4.12)"><rect width="6" height="6"/></g>
<g transform="translate(600,288) scale(4.12)"><rect width="6" height="6"/></g>
<g transform="translate(624,288) scale(4.12)"><rect width="6" height="6"/></g>
<g transform="translate(48,312) scale(4.12)"><rect width="6" height="6"/></g>
<g transform="translate(72,312) scale(4.12)"><rect width="6" height="6"/></g>
<g transform="translate(120,312) scale(4.12)"><rect width="6" height="6"/></g>
<g transform="translate(144,312) scale(4.12)"><rect width="6" height="6"/></g>
<g transform="translate(168,312) scale(4.12)"><rect width="6" height="6"/></g>
<g transform="translate(240,312) scale(4.12)"><rect width="6" height="6"/></g>
<g transform="translate(264,312) scale(4.12)"><rect width="6" height="6"/></g>
<g transform="translate(312,312) scale(4.12)"><rect width="6" height="6"/></g>
<g transform="translate(384,312) scale(4.12)"><rect width="6" height="6"/></g>
<g transform="translate(408,312) scale(4.12)"><rect width="6" height="6"/></g>
<g transform="translate(432,312) scale(4.12)"><rect width="6" height="6"/></g>
<g transform="translate(456,312) scale(4.12)"><rect width="6" height="6"/></g>
<g transform="translate(504,312) scale(4.12)"><rect width="6" height="6"/></g>
<g transform="translate(624,312) scale(4.12)"><rect width="6" height="6"/></g>
<g transform="translate(72,336) scale(4.12)"><rect width="6" height="6"/></g>
<g transform="translate(120,336) scale(4.12)"><rect width="6" height="6"/></g>
<g transform="translate(144,336) scale(4.12)"><rect width="6" height="6"/></g>
<g transform="translate(168,336) scale(4.12)"><rect width="6" height="6"/></g>
<g transform="translate(192,336) scale(4.12)"><rect width="6" height="6"/></g>
<g transform="translate(240,336) scale(4.12)"><rect width="6" height="6"/></g>
<g transform="translate(264,336) scale(4.12)"><rect width="6" height="6"/></g>
<g transform="translate(312,336) scale(4.12)"><rect width="6" height="6"/></g>
<g transform="translate(408,336) scale(4.12)"><rect width="6" height="6"/></g>
<g transform="translate(432,336) scale(4.12)"><rect width="6" height="6"/></g>
<g transform="translate(456,336) scale(4.12)"><rect width="6" height="6"/></g>
<g transform="translate(480,336) scale(4.12)"><rect width="6" height="6"/></g>
<g transform="translate(504,336) scale(4.12)"><rect width="6" height="6"/></g>
<g transform="translate(528,336) scale(4.12)"><rect width="6" height="6"/></g>
<g transform="translate(576,336) scale(4.12)"><rect width="6" height="6"/></g>
<g transform="translate(600,336) scale(4.12)"><rect width="6" height="6"/></g>
<g transform="translate(624,336) scale(4.12)"><rect width="6" height="6"/></g>
<g transform="translate(48,360) scale(4.12)"><rect width="6" height="6"/></g>
<g transform="translate(96,360) scale(4.12)"><rect width="6" height="6"/></g>
<g transform="translate(144,360) scale(4.12)"><rect width="6" height="6"/></g>
<g transform="translate(216,360) scale(4.12)"><rect width="6" height="6"/></g>
<g transform="translate(240,360) scale(4.12)"><rect width="6" height="6"/></g>
<g transform="translate(336,360) scale(4.12)"><rect width="6" height="6"/></g>
<g transform="translate(360,360) scale(4.12)"><rect width="6" height="6"/></g>
<g transform="translate(432,360) scale(4.12)"><rect width="6" height="6"/></g>
<g transform="translate(456,360) scale(4.12)"><rect width="6" height="6"/></g>
<g transform="translate(504,360) scale(4.12)"><rect width="6" height="6"/></g>
<g transform="translate(552,360) scale(4.12)"><rect width="6" height="6"/></g>
<g transform="translate(600,360) scale(4.12)"><rect width="6" height="6"/></g>
<g transform="translate(48,384) scale(4.12)"><rect width="6" height="6"/></g>
<g transform="translate(120,384) scale(4.12)"><rect width="6" height="6"/></g>
<g transform="translate(144,384) scale(4.12)"><rect width="6" height="6"/></g>
<g transform="translate(192,384) scale(4.12)"><rect width="6" height="6"/></g>
<g transform="translate(216,384) scale(4.12)"><rect width="6" height="6"/></g>
<g transform="translate(288,384) scale(4.12)"><rect width="6" height="6"/></g>
<g transform="translate(360,384) scale(4.12)"><rect width="6" height="6"/></g>
<g transform="translate(384,384) scale(4.12)"><rect width="6" height="6"/></g>
<g transform="translate(408,384) scale(4.12)"><rect width="6" height="6"/></g>
<g transform="translate(456,384) scale(4.12)"><rect width="6" height="6"/></g>
<g transform="translate(480,384) scale(4.12)"><rect width="6" height="6"/></g>
<g transform="translate(504,384) scale(4.12)"><rect width="6" height="6"/></g>
<g transform="translate(528,384) scale(4.12)"><rect width="6" height="6"/></g>
<g transform="translate(552,384) scale(4.12)"><rect width="6" height="6"/></g>
<g transform="translate(600,384) scale(4.12)"><rect width="6" height="6"/></g>
<g transform="translate(624,384) scale(4.12)"><rect width="6" height="6"/></g>
<g transform="translate(48,408) scale(4.12)"><rect width="6" height="6"/></g>
<g transform="translate(120,408) scale(4.12)"><rect width="6" height="6"/></g>
<g transform="translate(144,408) scale(4.12)"><rect width="6" height="6"/></g>
<g transform="translate(288,408) scale(4.12)"><rect width="6" height="6"/></g>
<g transform="translate(336,408) scale(4.12)"><rect width="6" height="6"/></g>
<g transform="translate(360,408) scale(4.12)"><rect width="6" height="6"/></g>
<g transform="translate(456,408) scale(4.12)"><rect width="6" height="6"/></g>
<g transform="translate(504,408) scale(4.12)"><rect width="6" height="6"/></g>
<g transform="translate(528,408) scale(4.12)"><rect width="6" height="6"/></g>
<g transform="translate(624,408) scale(4.12)"><rect width="6" height="6"/></g>
<g transform="translate(48,432) scale(4.12)"><rect width="6" height="6"/></g>
<g transform="translate(120,432) scale(4.12)"><rect width="6" height="6"/></g>
<g transform="translate(144,432) scale(4.12)"><rect width="6" height="6"/></g>
<g transform="translate(168,432) scale(4.12)"><rect width="6" height="6"/></g>
<g transform="translate(192,432) scale(4.12)"><rect width="6" height="6"/></g>
<g transform="translate(216,432) scale(4.12)"><rect width="6" height="6"/></g>
<g transform="translate(240,432) scale(4.12)"><rect width="6" height="6"/></g>
<g transform="translate(264,432) scale(4.12)"><rect width="6" height="6"/></g>
<g transform="translate(336,432) scale(4.12)"><rect width="6" height="6"/></g>
<g transform="translate(384,432) scale(4.12)"><rect width="6" height="6"/></g>
<g transform="translate(408,432) scale(4.12)"><rect width="6" height="6"/></g>
<g transform="translate(432,432) scale(4.12)"><rect width="6" height="6"/></g>
<g transform="translate(456,432) scale(4.12)"><rect width="6" height="6"/></g>
<g transform="translate(480,432) scale(4.12)"><rect width="6" height="6"/></g>
<g transform="translate(504,432) scale(4.12)"><rect width="6" height="6"/></g>
<g transform="translate(528,432) scale(4.12)"><rect width="6" height="6"/></g>
<g transform="translate(576,432) scale(4.12)"><rect width="6" height="6"/></g>
<g transform="translate(240,456) scale(4.12)"><rect width="6" height="6"/></g>
<g transform="translate(408,456) scale(4.12)"><rect width="6" height="6"/></g>
<g transform="translate(432,456) scale(4.12)"><rect width="6" height="6"/></g>
<g transform="translate(528,456) scale(4.12)"><rect width="6" height="6"/></g>
<g transform="translate(552,456) scale(4.12)"><rect width="6" height="6"/></g>
<g transform="translate(264,480) scale(4.12)"><rect width="6" height="6"/></g>
<g transform="translate(312,480) scale(4.12)"><rect width="6" height="6"/></g>
<g transform="translate(336,480) scale(4.12)"><rect width="6" height="6"/></g>
<g transform="translate(432,480) scale(4.12)"><rect width="6" height="6"/></g>
<g transform="translate(480,480) scale(4.12)"><rect width="6" height="6"/></g>
<g transform="translate(528,480) scale(4.12)"><rect width="6" height="6"/></g>
<g transform="translate(576,480) scale(4.12)"><rect width="6" height="6"/></g>
<g transform="translate(600,480) scale(4.12)"><rect width="6" height="6"/></g>
<g transform="translate(624,480) scale(4.12)"><rect width="6" height="6"/></g>
<g transform="translate(240,504) scale(4.12)"><rect width="6" height="6"/></g>
<g transform="translate(312,504) scale(4.12)"><rect width="6" height="6"/></g>
<g transform="translate(384,504) scale(4.12)"><rect width="6" height="6"/></g>
<g transform="translate(432,504) scale(4.12)"><rect width="6" height="6"/></g>
<g transform="translate(528,504) scale(4.12)"><rect width="6" height="6"/></g>
<g transform="translate(552,504) scale(4.12)"><rect width="6" height="6"/></g>
<g transform="translate(624,504) scale(4.12)"><rect width="6" height="6"/></g>
<g transform="translate(240,528) scale(4.12)"><rect width="6" height="6"/></g>
<g transform="translate(264,528) scale(4.12)"><rect width="6" height="6"/></g>
<g transform="translate(312,528) scale(4.12)"><rect width="6" height="6"/></g>
<g transform="translate(408,528) scale(4.12)"><rect width="6" height="6"/></g>
<g transform="translate(432,528) scale(4.12)"><rect width="6" height="6"/></g>
<g transform="translate(456,528) scale(4.12)"><rect width="6" height="6"/></g>
<g transform="translate(480,528) scale(4.12)"><rect width="6" height="6"/></g>
<g transform="translate(504,528) scale(4.12)"><rect width="6" height="6"/></g>
<g transform="translate(528,528) scale(4.12)"><rect width="6" height="6"/></g>
<g transform="translate(576,528) scale(4.12)"><rect width="6" height="6"/></g>
<g transform="translate(600,528) scale(4.12)"><rect width="6" height="6"/></g>
<g transform="translate(624,528) scale(4.12)"><rect width="6" height="6"/></g>
<g transform="translate(240,552) scale(4.12)"><rect width="6" height="6"/></g>
<g transform="translate(264,552) scale(4.12)"><rect width="6" height="6"/></g>
<g transform="translate(336,552) scale(4.12)"><rect width="6" height="6"/></g>
<g transform="translate(360,552) scale(4.12)"><rect width="6" height="6"/></g>
<g transform="translate(384,552) scale(4.12)"><rect width="6" height="6"/></g>
<g transform="translate(480,552) scale(4.12)"><rect width="6" height="6"/></g>
<g transform="translate(528,552) scale(4.12)"><rect width="6" height="6"/></g>
<g transform="translate(552,552) scale(4.12)"><rect width="6" height="6"/></g>
<g transform="translate(576,552) scale(4.12)"><rect width="6" height="6"/></g>
<g transform="translate(600,552) scale(4.12)"><rect width="6" height="6"/></g>
<g transform="translate(624,552) scale(4.12)"><rect width="6" height="6"/></g>
<g transform="translate(240,576) scale(4.12)"><rect width="6" height="6"/></g>
<g transform="translate(360,576) scale(4.12)"><rect width="6" height="6"/></g>
<g transform="translate(384,576) scale(4.12)"><rect width="6" height="6"/></g>
<g transform="translate(432,576) scale(4.12)"><rect width="6" height="6"/></g>
<g transform="translate(552,576) scale(4.12)"><rect width="6" height="6"/></g>
<g transform="translate(576,576) scale(4.12)"><rect width="6" height="6"/></g>
<g transform="translate(624,576) scale(4.12)"><rect width="6" height="6"/></g>
<g transform="translate(336,600) scale(4.12)"><rect width="6" height="6"/></g>
<g transform="translate(360,600) scale(4.12)"><rect width="6" height="6"/></g>
<g transform="translate(408,600) scale(4.12)"><rect width="6" height="6"/></g>
<g transform="translate(432,600) scale(4.12)"><rect width="6" height="6"/></g>
<g transform="translate(456,600) scale(4.12)"><rect width="6" height="6"/></g>
<g transform="translate(504,600) scale(4.12)"><rect width="6" height="6"/></g>
<g transform="translate(528,600) scale(4.12)"><rect width="6" height="6"/></g>
<g transform="translate(552,600) scale(4.12)"><rect width="6" height="6"/></g>
<g transform="translate(624,600) scale(4.12)"><rect width="6" height="6"/></g>
<g transform="translate(240,624) scale(4.12)"><rect width="6" height="6"/></g>
<g transform="translate(288,624) scale(4.12)"><rect width="6" height="6"/></g>
<g transform="translate(336,624) scale(4.12)"><rect width="6" height="6"/></g>
<g transform="translate(384,624) scale(4.12)"><rect width="6" height="6"/></g>
<g transform="translate(504,624) scale(4.12)"><rect width="6" height="6"/></g>
<g transform="translate(528,624) scale(4.12)"><rect width="6" height="6"/></g>
<g transform="translate(552,624) scale(4.12)"><rect width="6" height="6"/></g>
<g transform="translate(576,624) scale(4.12)"><rect width="6" height="6"/></g>
<g transform="translate(600,624) scale(4.12)"><rect width="6" height="6"/></g>
<g transform="translate(624,624) scale(4.12)"><rect width="6" height="6"/></g>
<g transform="translate(48,48)"><g transform="scale(12)"><path d="M0,0v14h14V0H0z M12,12H2V2h10V12z"/></g></g>
<g transform="translate(480,48)"><g transform="scale(12)"><path d="M0,0v14h14V0H0z M12,12H2V2h10V12z"/></g></g>
<g transform="translate(48,480)"><g transform="scale(12)"><path d="M0,0v14h14V0H0z M12,12H2V2h10V12z"/></g></g>
<g transform="translate(96,96)"><g transform="scale(12)"><rect width="6" height="6"/></g></g>
<g transform="translate(528,96)"><g transform="scale(12)"><rect width="6" height="6"/></g></g>
<g transform="translate(96,528)"><g transform="scale(12)"><rect width="6" height="6"/></g></g>
</g></svg>
